<svg width="1062" height="637" viewBox="0 0 1062 637" fill="none" xmlns="http://www.w3.org/2000/svg">
<path d="M18.8416 505.411C19.9697 507.482 20.2055 509.805 19.5319 512.365C17.0063 511.573 15.171 510.142 14.026 508.071C12.881 506 12.6621 503.693 13.3356 501.134C15.8613 501.925 17.6966 503.356 18.8416 505.411Z" fill="#70A1D5"/>
<path d="M8.5873 511.977C11.8202 511.775 14.8341 512.87 17.6124 515.227C15.1372 517.887 12.2748 519.319 9.02509 519.504C5.79222 519.706 2.77825 518.611 0 516.254C2.492 513.594 5.3376 512.162 8.5873 511.977Z" fill="#70A1D5"/>
<path d="M887.119 634.843H143.004V620.75H887.119V634.843Z" fill="#A7D2FF"/>
<path d="M152.669 610.041H37.9695V605.596H152.669V610.041Z" fill="#B6CCD8"/>
<path d="M152.669 628.058H37.9695V623.613H152.669V628.058Z" fill="#B6CCD8"/>
<path d="M1025.17 610.041H862.586V605.596H1025.17V610.041Z" fill="#B6CCD8"/>
<path d="M1025.17 628.058H862.586V623.613H1025.17V628.058Z" fill="#B6CCD8"/>
<circle opacity="0.1" cx="776" cy="286" r="286" fill="#1786FA"/>
<path d="M692.642 322.063H980.889C979.508 316.978 971.914 299.568 933.356 306.252C939.586 300.696 943.728 292.125 941.994 283.942C941.488 281.484 940.428 279.093 938.643 277.325C937.043 275.725 934.938 274.715 932.8 273.94C922.681 270.303 908.739 275.456 890.992 289.431C923.59 238.21 834.753 216.708 834.147 281.534C825.476 266.01 816.383 260.403 806.87 264.68C801.078 267.997 804.664 277.981 807.257 282.342C765.634 262.12 727.749 274.53 745.395 297.597C718.134 298.17 700.539 306.319 692.642 322.063Z" fill="white"/>
<path d="M142.785 199.433H317.191C316.349 196.369 311.753 185.828 288.415 189.87C292.204 186.502 294.696 181.316 293.652 176.382C293.349 174.884 292.709 173.436 291.631 172.358C290.655 171.398 289.392 170.792 288.096 170.321C281.967 168.115 273.531 171.247 262.805 179.699C282.505 148.701 228.759 135.702 228.405 174.917C223.152 165.522 217.646 162.121 211.904 164.731C208.385 166.734 210.557 172.762 212.14 175.406C186.951 163.182 164.034 170.674 174.709 184.633C158.208 184.987 147.567 189.92 142.785 199.433Z" fill="white"/>
<path d="M676.04 137.638C676.04 155.099 661.879 169.26 644.418 169.26C626.94 169.26 612.78 155.099 612.78 137.638C612.78 120.161 626.94 106 644.418 106C661.879 106 676.04 120.161 676.04 137.638Z" fill="#F9AA41"/>
<path d="M263.024 346.276H213.083V253.769H263.024V346.276Z" fill="white"/>
<path d="M213.083 277.207V286.131L263.024 280.423V277.207H213.083Z" fill="#9BB8CC"/>
<path d="M268.867 277.207H207.223V266.043H268.867V277.207Z" fill="#171F4E"/>
<path d="M870.853 634.843H1036.96C1034.64 627.283 1028.61 621.356 1021.7 618.662C1014.29 615.766 1006.08 616.204 998.467 618.376C999.865 617.972 1001.73 615.463 1002.71 614.402C1005.07 611.843 1006.95 609.166 1007.49 605.647C1008.08 601.707 1006.94 597.716 1004.5 594.618C1000.4 589.415 993.281 587.546 986.9 588.219C986.58 588.253 986.26 588.287 985.94 588.337C984.694 588.539 983.465 588.842 982.286 589.297C977.184 591.301 972.672 594.786 968.799 598.625C968.075 599.349 967.351 600.09 966.694 600.882C973.901 594.887 978.346 589.617 980.03 585.071C989.409 565.69 969.574 537.538 944.906 545.519C935.006 549.694 926.907 558.231 921.569 568.317C941.303 538.767 908.587 520.801 896.969 547.404C904.159 525.482 893.433 502.548 871.763 515.413C871.443 515.53 871.173 515.682 870.853 515.8V634.843Z" fill="#70A1D5"/>
<path d="M870.853 634.843H968.715C967.351 630.381 963.798 626.896 959.74 625.313C955.363 623.596 950.513 623.865 946.034 625.145C948.324 620.7 945.192 614.688 940.815 612.954C936.437 611.22 931.537 612.668 927.328 614.823C930.964 613.123 933.675 609.536 935.174 605.529C940.697 594.096 929.028 577.527 914.48 582.208C908.654 584.683 903.889 589.718 900.741 595.645C912.359 578.235 893.079 567.66 886.243 583.32C892.894 566.196 880.047 556.143 870.853 559.999V634.843Z" fill="#A7D2FF"/>
<path d="M972.335 541.225C970.584 542.791 968.429 543.481 965.903 543.262C966.206 540.501 967.233 538.329 968.984 536.746C970.735 535.163 972.891 534.49 975.416 534.692C975.113 537.47 974.086 539.642 972.335 541.225Z" fill="#70A1D5"/>
<path d="M896.834 568.671C895.538 571.028 893.483 572.56 890.672 573.268C889.964 570.169 890.268 567.442 891.581 565.101C892.877 562.744 894.948 561.212 897.76 560.504C898.451 563.603 898.148 566.33 896.834 568.671Z" fill="#A7D2FF"/>
<path d="M964.354 531.863C965.095 535.18 964.607 538.497 962.872 541.831C959.909 539.776 958.074 537.082 957.316 533.765C956.575 530.448 957.08 527.114 958.814 523.797C961.761 525.852 963.613 528.546 964.354 531.863Z" fill="#70A1D5"/>
<path d="M78.7167 634.388L81.2761 597.379L60.7844 573.654L62.0473 572.644L74.12 582.982L75.888 572.644L77.7906 573.149L77.4707 586.03L82.3874 590.812L84.2564 552.994L74.221 540.568L75.3323 539.608L85.7213 547.926L86.3948 528.142H89.1057L90.9073 552.455L93.5172 576.635L107.055 561.952L108.318 562.794L103.384 570.556L111.988 570.438V571.869L102.593 573.318L93.3657 587.764L95.4704 634.388H78.7167Z" fill="#994F61"/>
<path d="M166.156 500.51C166.324 495.897 165.987 491.149 164.051 486.956C162.115 482.763 158.326 479.211 153.763 478.554C151.12 478.184 148.156 478.924 146.54 481.029C151.692 474.631 156.39 467.609 158.427 459.645C160.448 451.681 159.437 442.571 154.134 436.291C149.032 430.246 140.512 427.636 132.682 428.781C124.869 429.943 117.781 434.506 112.645 440.517C113.201 428.141 116.046 415.681 113.773 403.508C111.517 391.334 101.852 379.16 89.4762 379.699C81.091 380.086 74.0528 386.08 68.6983 392.546C57.619 405.966 50.7829 422.854 49.4022 440.214C46.1861 435.786 42.9028 431.307 38.6091 427.923C34.3154 424.555 28.7758 422.366 23.3877 423.242C14.5141 424.69 8.85661 433.732 6.70137 442.454C4.39458 451.782 4.73135 461.733 7.6443 470.876C12.4936 485.996 23.8255 497.985 34.8206 509.418C29.7692 507.178 23.4045 510.209 20.963 515.176C17.6291 521.911 20.7946 529.674 25.4082 535.045C29.2978 539.541 34.4333 542.807 39.7541 545.468C69.5571 560.436 105.826 558.281 135.898 545.249C147.062 540.416 154.841 532.418 160.785 521.726C160.801 521.692 160.835 521.659 160.852 521.608C164.388 515.21 165.903 507.818 166.156 500.51Z" fill="#70A1D5"/>
<path d="M70.4495 563.265C69.052 561.666 64.9435 561.026 65.0277 563.972C63.8154 554.863 51.9279 558.315 57.4844 567.003C48.3414 557.507 40.2424 569.664 52.0626 575.085C42.0104 575.288 47.6342 589.617 56.4404 583.37C52.8708 585.508 55.1439 590.223 58.9998 589.6C69.2203 587.916 79.6766 571.617 70.4495 563.265Z" fill="#70A1D5"/>
<path d="M52.6014 536.426C51.7763 534.001 51.2038 531.408 51.5743 528.882C51.9278 526.34 53.3759 523.848 55.6995 522.77C57.0466 522.147 58.7303 522.063 59.9427 522.922C56.171 520.346 52.5508 517.365 50.1935 513.459C47.8363 509.536 46.927 504.535 48.7455 500.359C50.4966 496.318 54.6051 493.573 58.9492 492.934C63.2934 492.294 67.7891 493.59 71.4934 495.964C69.2203 489.482 65.718 483.302 64.9772 476.466C64.2363 469.63 67.4187 461.615 74.0865 459.931C78.6158 458.786 83.3136 460.858 87.1863 463.434C95.2348 468.805 101.566 476.702 105.068 485.71C106.078 482.831 107.105 479.935 108.84 477.443C110.591 474.968 113.184 472.913 116.198 472.526C121.148 471.869 125.593 475.776 128.136 480.07C130.847 484.666 132.261 490.021 132.177 495.341C132.009 504.148 127.9 512.348 123.876 520.177C126.2 518.174 130.072 518.78 132.177 521.019C135.023 524.084 134.568 528.714 132.968 532.3C131.638 535.314 129.416 537.874 127.008 540.147C113.554 552.86 93.9214 557.507 75.8544 555.385C69.1361 554.594 63.7312 551.597 58.865 546.848C58.8314 546.832 58.8145 546.815 58.7977 546.798C55.9016 543.952 53.9147 540.265 52.6014 536.426Z" fill="#A7D2FF"/>
<path d="M115.238 574.732C114.076 574.26 113.218 573.368 112.662 572.071C113.975 571.566 115.221 571.549 116.383 572.038C117.545 572.526 118.404 573.418 118.976 574.715C117.646 575.22 116.4 575.22 115.238 574.732Z" fill="#70A1D5"/>
<path d="M117.36 568.603C116.063 569.748 114.447 570.303 112.51 570.236C112.662 568.3 113.386 566.751 114.682 565.589C115.979 564.444 117.595 563.888 119.532 563.956C119.38 565.892 118.656 567.441 117.36 568.603Z" fill="#70A1D5"/>
<path d="M114.716 466.818C113.066 468.518 110.911 469.411 108.267 469.495C108.301 466.851 109.126 464.679 110.776 462.996C112.426 461.295 114.565 460.403 117.225 460.318C117.191 462.962 116.35 465.134 114.716 466.818Z" fill="#A7D2FF"/>
<path d="M54.9418 486.956C56.4741 487.528 57.6359 488.656 58.4273 490.323C56.7267 491.031 55.1102 491.098 53.578 490.509C52.0457 489.919 50.8839 488.808 50.1094 487.141C51.7932 486.434 53.4096 486.366 54.9418 486.956Z" fill="#A7D2FF"/>
<path d="M105.472 458.921C106.584 461.969 106.415 465.151 104.967 468.502C101.701 466.902 99.4948 464.579 98.3835 461.531C97.2553 458.483 97.4237 455.284 98.8718 451.95C102.155 453.55 104.344 455.873 105.472 458.921Z" fill="#A7D2FF"/>
<path d="M64.5226 584.229C63.6302 584.346 62.721 584.363 61.8959 584.262C60.6836 584.111 59.4544 583.589 58.6799 582.629C58.0232 581.821 57.6528 580.541 58.0232 579.531C58.562 578.049 60.4815 578.403 61.3739 577.291C61.8622 576.685 61.8622 575.826 61.7612 575.052C61.6602 574.277 61.475 573.486 61.6602 572.728C61.8454 571.971 62.5694 571.263 63.3271 571.432C63.8996 571.566 64.27 572.122 64.6405 572.526C64.8762 572.779 65.1793 572.998 65.516 572.981C66.9473 572.947 67.3009 570.809 68.7994 571.078C70.3654 571.348 71.2578 572.998 71.6955 574.395C72.4701 576.82 72.0997 579.48 70.4327 581.467C68.9341 583.235 66.7452 583.925 64.5226 584.229Z" fill="#A7D2FF"/>
<path d="M698.956 224.269L345.378 218.207L140.596 415.244H297.996H740.057H897.44L698.956 224.269Z" fill="#171F4E"/>
<path d="M879.929 620.75H650.194V415.244H879.929V620.75Z" fill="white"/>
<path d="M879.929 620.75H854.824V415.244H879.929V620.75Z" fill="#1786FA"/>
<path d="M675.316 620.75H650.194V415.244H675.316V620.75Z" fill="#1786FA"/>
<path d="M854.824 447.523H675.316V444.997H854.824V447.523Z" fill="#E1ECEF"/>
<path d="M854.824 476.467H675.316V473.941H854.824V476.467Z" fill="#E1ECEF"/>
<path d="M854.824 505.429H675.316V502.903H854.824V505.429Z" fill="#E1ECEF"/>
<path d="M854.824 534.373H675.316V531.847H854.824V534.373Z" fill="#E1ECEF"/>
<path d="M854.824 563.317H675.316V560.791H854.824V563.317Z" fill="#E1ECEF"/>
<path d="M854.824 592.278H675.316V589.752H854.824V592.278Z" fill="#E1ECEF"/>
<path d="M675.316 447.523H650.194V444.997H675.316V447.523Z" fill="#1786FA"/>
<path d="M675.316 476.467H650.194V473.941H675.316V476.467Z" fill="#1786FA"/>
<path d="M675.316 505.429H650.194V502.903H675.316V505.429Z" fill="#1786FA"/>
<path d="M675.316 534.373H650.194V531.847H675.316V534.373Z" fill="#1786FA"/>
<path d="M675.316 563.317H650.194V560.791H675.316V563.317Z" fill="#1786FA"/>
<path d="M675.316 592.278H650.194V589.752H675.316V592.278Z" fill="#1786FA"/>
<path d="M879.929 447.523H854.824V444.997H879.929V447.523Z" fill="#1786FA"/>
<path d="M879.929 476.467H854.824V473.941H879.929V476.467Z" fill="#1786FA"/>
<path d="M879.929 505.429H854.824V502.903H879.929V505.429Z" fill="#1786FA"/>
<path d="M879.929 534.373H854.824V531.847H879.929V534.373Z" fill="#1786FA"/>
<path d="M879.929 563.317H854.824V560.791H879.929V563.317Z" fill="#1786FA"/>
<path d="M879.929 592.278H854.824V589.752H879.929V592.278Z" fill="#1786FA"/>
<path d="M387.843 620.75H158.107V415.244H387.843V620.75Z" fill="white"/>
<path d="M385.873 447.523H158.107V444.997H385.873V447.523Z" fill="#E1ECEF"/>
<path d="M385.873 476.467H158.107V473.941H385.873V476.467Z" fill="#E1ECEF"/>
<path d="M385.873 505.429H158.107V502.903H385.873V505.429Z" fill="#E1ECEF"/>
<path d="M385.873 534.373H158.107V531.847H385.873V534.373Z" fill="#E1ECEF"/>
<path d="M385.873 563.317H158.107V560.791H385.873V563.317Z" fill="#E1ECEF"/>
<path d="M385.873 592.278H158.107V589.752H385.873V592.278Z" fill="#E1ECEF"/>
<path d="M348.611 620.75H197.339V457.49H348.611V620.75Z" fill="#1786FA"/>
<path d="M348.611 464.68L197.339 489.23V457.49H348.611V464.68Z" fill="#1786FA"/>
<path d="M387.843 620.75H377.791L384.071 415.244H387.843V620.75Z" fill="#9BB8CC"/>
<path d="M387.843 418.645L158.107 431.206V415.244H387.843V418.645Z" fill="#9BB8CC"/>
<path d="M675.316 415.244V429.826L854.824 420.009V415.244H675.316Z" fill="#9BB8CC"/>
<path d="M854.824 415.244V420.009L879.929 418.645V415.244H854.824Z" fill="#1786FA"/>
<path d="M650.194 415.244V431.206L675.316 429.826V415.244H650.194Z" fill="#1786FA"/>
<path d="M650.194 620.75H387.843V301.252L519.027 198.895L650.194 301.252V620.75Z" fill="white"/>
<path d="M519.027 198.895L387.843 301.252V324.421L512.915 227.721L650.194 334.86V301.252L519.027 198.895Z" fill="#9BB8CC"/>
<path d="M671.039 303.98L519.027 189.92L367.099 305.124L381.916 319.925L519.027 212.937L655.531 319.47L671.039 303.98Z" fill="white"/>
<path d="M323.674 620.749H222.681V492.849H323.674V620.749Z" fill="white"/>
<path d="M269.372 613.644H229.988V498.709H269.372V613.644Z" fill="#171F4E"/>
<path d="M315.962 613.644H276.562V498.709H315.962V613.644Z" fill="#171F4E"/>
<path d="M323.674 491.064H222.68H221.704H220.441L219.195 620.75H222.68V492.849H323.674V491.064Z" fill="#1786FA"/>
<path d="M836.757 579.783H692.44V492.85H836.757V579.783Z" fill="white"/>
<path d="M723.438 572.981H699.158V498.709H723.438V572.981Z" fill="#171F4E"/>
<path d="M799.663 572.981H730.476V498.709H799.663V572.981Z" fill="#171F4E"/>
<path d="M830.981 572.981H806.701V498.709H830.981V572.981Z" fill="#171F4E"/>
<path d="M836.757 491.738H692.439H690.301L688.533 579.783H692.439V492.85H836.757V491.738Z" fill="#9BB8CC"/>
<path d="M692.439 579.042H836.757V581.114L688.533 587.377V579.042H692.439Z" fill="#9BB8CC"/>
<path d="M468.833 613.645H429.449V498.709H468.833V613.645Z" fill="#171F4E"/>
<path d="M515.423 613.645H476.04V498.709H515.423V613.645Z" fill="#171F4E"/>
<path d="M562.014 613.645H522.613V498.709H562.014V613.645Z" fill="#171F4E"/>
<path d="M608.587 613.645H569.204V498.709H608.587V613.645Z" fill="#171F4E"/>
<path d="M613.201 491.738H419.919L416.905 620.75H422.984V492.85H613.201V491.738Z" fill="#9BB8CC"/>
<path d="M515.423 418.241H476.039V303.306H515.423V418.241Z" fill="#171F4E"/>
<path d="M562.013 418.241H522.613V303.306H562.013V418.241Z" fill="#171F4E"/>
<path d="M568.361 296.335H466.863L463.866 425.347H469.927V297.446H568.361V296.335Z" fill="#9BB8CC"/>
<path d="M622.209 435.129H415.844V424.521H622.209V435.129Z" fill="#171F4E"/>
<path d="M622.209 435.129H415.844V424.521L407.913 435.129V445.097L622.209 437.47V435.129Z" fill="#9BB8CC"/>
<path d="M428.203 424.522H424.869V395.628H428.203V424.522Z" fill="#A7D2FF"/>
<path d="M540.006 424.522H536.656V395.628H540.006V424.522Z" fill="#A7D2FF"/>
<path d="M502.744 424.522H499.393V395.628H502.744V424.522Z" fill="#A7D2FF"/>
<path d="M577.268 424.522H573.918V395.628H577.268V424.522Z" fill="#A7D2FF"/>
<path d="M465.482 424.522H462.131V395.628H465.482V424.522Z" fill="#A7D2FF"/>
<path d="M614.531 424.522H611.18V395.628H614.531V424.522Z" fill="#A7D2FF"/>
<path d="M428.203 398.356H424.869V395.628H428.203V398.356Z" fill="#5FADFF"/>
<path d="M540.006 398.356H536.656V395.628H540.006V398.356Z" fill="#5FADFF"/>
<path d="M502.744 398.356H499.393V395.628H502.744V398.356Z" fill="#5FADFF"/>
<path d="M577.268 398.356H573.918V395.628H577.268V398.356Z" fill="#5FADFF"/>
<path d="M465.482 398.356H462.131V395.628H465.482V398.356Z" fill="#5FADFF"/>
<path d="M614.531 398.356H611.18V395.628H614.531V398.356Z" fill="#5FADFF"/>
<path d="M617.561 395.628H420.255V388.304L617.561 390.004V395.628Z" fill="#A7D2FF"/>
<path d="M50.1263 634.389H42.3473C41.8758 634.389 41.4885 634.035 41.4885 633.581V600.326C41.4885 600.141 41.539 599.972 41.6569 599.821L45.5633 595.14C45.9 594.719 46.5735 594.719 46.9271 595.14L50.8167 599.821C50.9346 599.972 51.0019 600.141 51.0019 600.326V633.581C51.0019 634.035 50.6146 634.389 50.1263 634.389Z" fill="white"/>
<path d="M66.3917 634.389H58.6126C58.1243 634.389 57.7371 634.035 57.7371 633.581V600.326C57.7371 600.141 57.8044 599.972 57.9223 599.821L61.8118 595.14C62.1654 594.719 62.8389 594.719 63.1757 595.14L67.0821 599.821C67.1999 599.972 67.2504 600.141 67.2504 600.326V633.581C67.2504 634.035 66.8632 634.389 66.3917 634.389Z" fill="white"/>
<path d="M82.6401 634.389H74.8611C74.3896 634.389 74.0023 634.035 74.0023 633.581V600.326C74.0023 600.141 74.0697 599.972 74.1875 599.821L78.0771 595.14C78.4138 594.719 79.0874 594.719 79.441 595.14L83.3305 599.821C83.4484 599.972 83.5157 600.141 83.5157 600.326V633.581C83.5157 634.035 83.1284 634.389 82.6401 634.389Z" fill="white"/>
<path d="M98.9055 634.389H91.1264C90.6381 634.389 90.2509 634.035 90.2509 633.581V600.326C90.2509 600.141 90.3182 599.972 90.4361 599.821L94.3256 595.14C94.6792 594.719 95.3527 594.719 95.7063 595.14L99.5959 599.821C99.7137 599.972 99.7811 600.141 99.7811 600.326V633.581C99.7811 634.035 99.3938 634.389 98.9055 634.389Z" fill="white"/>
<path d="M115.171 634.389H107.375C106.904 634.389 106.516 634.035 106.516 633.581V600.326C106.516 600.141 106.584 599.972 106.701 599.821L110.591 595.14C110.928 594.719 111.618 594.719 111.955 595.14L115.844 599.821C115.962 599.972 116.03 600.141 116.03 600.326V633.581C116.03 634.035 115.642 634.389 115.171 634.389Z" fill="white"/>
<path d="M131.419 634.389H123.64C123.169 634.389 122.782 634.035 122.782 633.581V600.326C122.782 600.141 122.832 599.972 122.95 599.821L126.84 595.14C127.193 594.719 127.867 594.719 128.22 595.14L132.11 599.821C132.228 599.972 132.295 600.141 132.295 600.326V633.581C132.295 634.035 131.908 634.389 131.419 634.389Z" fill="white"/>
<path d="M147.685 634.389H139.906C139.418 634.389 139.03 634.035 139.03 633.581V600.326C139.03 600.141 139.098 599.972 139.215 599.821L143.105 595.14C143.459 594.719 144.132 594.719 144.469 595.14L148.375 599.821C148.493 599.972 148.544 600.141 148.544 600.326V633.581C148.544 634.035 148.156 634.389 147.685 634.389Z" fill="white"/>
<path d="M874.743 634.389H866.964C866.493 634.389 866.105 634.035 866.105 633.581V600.326C866.105 600.141 866.173 599.972 866.291 599.821L870.18 595.14C870.517 594.719 871.19 594.719 871.544 595.14L875.434 599.821C875.551 599.972 875.619 600.141 875.619 600.326V633.581C875.619 634.035 875.232 634.389 874.743 634.389Z" fill="white"/>
<path d="M891.009 634.389H883.229C882.741 634.389 882.354 634.035 882.354 633.581V600.326C882.354 600.141 882.421 599.972 882.539 599.821L886.429 595.14C886.782 594.719 887.456 594.719 887.809 595.14L891.699 599.821C891.817 599.972 891.884 600.141 891.884 600.326V633.581C891.884 634.035 891.48 634.389 891.009 634.389Z" fill="white"/>
<path d="M907.274 634.389H899.478C899.007 634.389 898.62 634.035 898.62 633.581V600.326C898.62 600.141 898.687 599.972 898.805 599.821L902.694 595.14C903.031 594.719 903.721 594.719 904.058 595.14L907.948 599.821C908.066 599.972 908.133 600.141 908.133 600.326V633.581C908.133 634.035 907.746 634.389 907.274 634.389Z" fill="white"/>
<path d="M923.523 634.389H915.744C915.272 634.389 914.885 634.035 914.885 633.581V600.326C914.885 600.141 914.935 599.972 915.053 599.821L918.943 595.14C919.296 594.719 919.97 594.719 920.323 595.14L924.213 599.821C924.331 599.972 924.398 600.141 924.398 600.326V633.581C924.398 634.035 924.011 634.389 923.523 634.389Z" fill="white"/>
<path d="M939.788 634.389H932.009C931.521 634.389 931.133 634.035 931.133 633.581V600.326C931.133 600.141 931.201 599.972 931.318 599.821L935.208 595.14C935.562 594.719 936.235 594.719 936.572 595.14L940.461 599.821C940.596 599.972 940.647 600.141 940.647 600.326V633.581C940.647 634.035 940.259 634.389 939.788 634.389Z" fill="white"/>
<path d="M956.037 634.389H948.257C947.786 634.389 947.399 634.035 947.399 633.581V600.326C947.399 600.141 947.466 599.972 947.584 599.821L951.473 595.14C951.81 594.719 952.484 594.719 952.837 595.14L956.727 599.821C956.845 599.972 956.912 600.141 956.912 600.326V633.581C956.912 634.035 956.525 634.389 956.037 634.389Z" fill="white"/>
<path d="M972.302 634.389H964.523C964.034 634.389 963.647 634.035 963.647 633.581V600.326C963.647 600.141 963.714 599.972 963.832 599.821L967.722 595.14C968.075 594.719 968.749 594.719 969.103 595.14L972.992 599.821C973.11 599.972 973.16 600.141 973.16 600.326V633.581C973.16 634.035 972.773 634.389 972.302 634.389Z" fill="white"/>
<path d="M1041 636.527H27.3784V633.159H1041V636.527Z" fill="#171F4E"/>
</svg>
