<svg xmlns="http://www.w3.org/2000/svg"  viewBox="0 0 48 48" width="48px" height="48px"><path fill="#9c27b0" d="M45,29.519v-2.256C44.779,22.988,42.789,18,24,18S3.221,22.988,3,27.262v2.256C3,32.131,3,34.15,3,37	h42C45,33.913,45,32.25,45,29.519z"/><path fill="#ffb300" d="M7,15.5c-0.6,0-1-0.4-1-1v-3c0-0.6,0.4-1,1-1s1,0.4,1,1v3C8,15.1,7.6,15.5,7,15.5z"/><path fill="#ff9800" d="M3,37c0,1,0,2.2,0,3.7V42v4h6.632v-2h28.737v2H45v-4.1v-1.5c0-1.4,0-2.5,0-3.5H3V37z"/><path fill="#f3e5f5" d="M18.3,28h-4.7c-2,0-3.7,1.6-3.7,3.7V32h12v-0.3C22,29.6,20.4,28,18.3,28z"/><path fill="#f3e5f5" d="M34.3,28h-4.7c-2,0-3.7,1.6-3.7,3.7V32h12v-0.3C38,29.6,36.4,28,34.3,28z"/><path fill="#ef6c00" d="M42.237,32H5.763C4.216,32,3,33.1,3,34.5V37h42v-2.5C45,33.1,43.784,32,42.237,32z"/><polygon fill="#29b6f6" points="11,12 3,12 4.1,5 9.9,5"/><path fill="#ffb300" d="M41,15.5c-0.6,0-1-0.4-1-1v-3c0-0.6,0.4-1,1-1s1,0.4,1,1v3C42,15.1,41.6,15.5,41,15.5z"/><polygon fill="#29b6f6" points="45,12 37,12 38.1,5 43.9,5"/></svg>