<svg xmlns="http://www.w3.org/2000/svg"  viewBox="0 0 512 512" width="48px" height="48px"><path fill="#f7caa5" d="M349.75,410.58l70.2-33.16a32.458,32.458,0,0,1,42.89,13.01l-142.69,92.3a98.021,98.021,0,0,1-61.22,6.93l-98.41-27.62A36.439,36.439,0,0,0,133.48,465L112.9,476.01l2.77-100.37.82.02a96.284,96.284,0,0,1,100.06-7l5.89,3.05a68.727,68.727,0,0,0,29.75,7.68l57.85,1.6A43.028,43.028,0,0,1,349.75,410.58Z"/><circle cx="261" cy="234.5" r="108.01" fill="#fedb41"/><polygon fill="#00efd1" points="112.9 476.01 112.59 487.31 49.16 485.57 52.99 346.36 116.43 348.1 115.67 375.64 112.9 476.01"/><path fill="#083863" d="M261.666,278.176a7.679,7.679,0,0,0-2.727-.1,18.07,18.07,0,0,1-16.1-18.028,8,8,0,0,0-16,0A34.017,34.017,0,0,0,252,293.008V301a8,8,0,0,0,16,0v-7.514a34.166,34.166,0,0,0-7-67.606,18.16,18.16,0,1,1,18.16-18.16,8,8,0,0,0,16,0A34.217,34.217,0,0,0,268,174.284V167a8,8,0,0,0-16,0v7.772a34.157,34.157,0,0,0,9,67.108,18.154,18.154,0,0,1,.666,36.3Z"/><path fill="#083863" d="M144.99,234.5A116.01,116.01,0,1,0,261,118.49,116.142,116.142,0,0,0,144.99,234.5ZM261,134.49A100.01,100.01,0,1,1,160.99,234.5,100.123,100.123,0,0,1,261,134.49Z"/><path fill="#083863" d="M416.445,370.228l-62.651,29.594a51.156,51.156,0,0,0-43.533-26.829l-57.855-1.6a61.1,61.1,0,0,1-26.288-6.787l-5.887-3.048a103.808,103.808,0,0,0-96.172.1l.368-13.34a8,8,0,0,0-7.778-8.218l-63.44-1.74a7.991,7.991,0,0,0-8.216,7.777l-3.83,139.21a8,8,0,0,0,7.778,8.217l63.43,1.74c.074,0,.149,0,.223,0a8,8,0,0,0,7.993-7.781l.183-6.653,16.487-8.824a28.305,28.305,0,0,1,21.1-2.309l98.411,27.619c.17.049.343.091.517.127a105.317,105.317,0,0,0,21.642,2.235,106.648,106.648,0,0,0,44.574-9.73,8.045,8.045,0,0,0,.993-.547l142.69-92.3a8,8,0,0,0,2.62-10.651A40.408,40.408,0,0,0,416.445,370.228ZM105,475.791l-.139,3.3-47.46-1.3,3.378-123.216,47.488,1.3L105,475.789Zm211.292-.093a90.646,90.646,0,0,1-55.462,6.186l-98.15-27.547a44.235,44.235,0,0,0-32.974,3.609l-8.429,4.511,2.261-81.929a87.922,87.922,0,0,1,89.334-4.764l5.889,3.05a77.16,77.16,0,0,0,33.208,8.573l57.853,1.6a35.094,35.094,0,0,1,32.33,24.1,34.3,34.3,0,0,1,1.026,3.854L257,414.563a8,8,0,1,0-.44,15.994l95.09,2.62.22,0a8,8,0,0,0,8-7.781,51.2,51.2,0,0,0-.775-10.379l64.275-30.367c.063-.029.125-.059.187-.091a24.439,24.439,0,0,1,27.642,3.872Z"/><path fill="#083863" d="M269,96V20a8,8,0,0,0-16,0V96a8,8,0,0,0,16,0Z"/><path fill="#083863" d="M329,96V60a8,8,0,0,0-16,0V96a8,8,0,0,0,16,0Z"/><path fill="#083863" d="M209,96V60a8,8,0,0,0-16,0V96a8,8,0,0,0,16,0Z"/></svg>